Please Visit [url="Team-CC.Com"]Team-CC.Com[/url] For More Exclusive Releases

SCREENSHOT 
http://imgul.in/images/2012/08/03/5RdpQ.jpg

[b]Video[/b]
ID                             : 1
Format                         : AVC
Format/Info                    : Advanced Video Codec
Format profile                 : High@L1.3
Format settings, CABAC         : Yes
Format settings, ReFrames      : 4 frames
Muxing mode                    : Header stripping
Codec ID                       : V_MPEG4/ISO/AVC
Duration                       : 1h 44mn
Bit rate                       : 274 Kbps
Width                          : 352 pixels
Height                         : 288 pixels
Display aspect ratio           : 1.222
Frame rate                     : 25.000 fps
Standard                       : PAL
Color space                    : YUV
Chroma subsampling             : 4:2:0
Bit depth                      : 8 bits
Scan type                      : Progressive
Bits/(Pixel*Frame)             : 0.108
Stream size                    : 201 MiB (79%)

[b]Audio[/b]
ID                             : 2
Format                         : MPEG Audio
Format version                 : Version 1
Format profile                 : Layer 3
Muxing mode                    : Header stripping
Codec ID                       : A_MPEG/L3
Codec ID/Hint                  : MP3
Duration                       : 1h 44mn
Bit rate mode                  : Constant
Bit rate                       : 64.0 Kbps
Channel(s)                     : 2 channels
Sampling rate                  : 44.1 KHz
Compression mode               : Lossy
Stream size                    : 48.0 MiB (19%)

Please Visit [url="Team-CC.Com"]Team-CC.Com[/url] For More Exclusive Releases